<svg id="visual" viewBox="0 0 900 600" width="900" height="600" xmlns="http://www.w3.org/2000/svg" xmlns:xlink="http://www.w3.org/1999/xlink" version="1.1"><path d="M0 149L16.7 145.3C33.3 141.7 66.7 134.3 100 129.2C133.3 124 166.7 121 200 126.2C233.3 131.3 266.7 144.7 300 150.3C333.3 156 366.7 154 400 146.8C433.3 139.7 466.7 127.3 500 134.3C533.3 141.3 566.7 167.7 600 172.7C633.3 177.7 666.7 161.3 700 150C733.3 138.7 766.7 132.3 800 132C833.3 131.7 866.7 137.3 883.3 140.2L900 143L900 0L883.3 0C866.7 0 833.3 0 800 0C766.7 0 733.3 0 700 0C666.7 0 633.3 0 600 0C566.7 0 533.3 0 500 0C466.7 0 433.3 0 400 0C366.7 0 333.3 0 300 0C266.7 0 233.3 0 200 0C166.7 0 133.3 0 100 0C66.7 0 33.3 0 16.7 0L0 0Z" fill="#0066FF" stroke-linecap="round" stroke-linejoin="miter"></path></svg>