<svg id="visual" viewBox="0 0 900 600" width="900" height="600" xmlns="http://www.w3.org/2000/svg" xmlns:xlink="http://www.w3.org/1999/xlink" version="1.1"><path d="M0 449L16.7 452.7C33.3 456.3 66.7 463.7 100 468.8C133.3 474 166.7 477 200 471.8C233.3 466.7 266.7 453.3 300 447.7C333.3 442 366.7 444 400 451.2C433.3 458.3 466.7 470.7 500 463.7C533.3 456.7 566.7 430.3 600 425.3C633.3 420.3 666.7 436.7 700 448C733.3 459.3 766.7 465.7 800 466C833.3 466.3 866.7 460.7 883.3 457.8L900 455L900 601L883.3 601C866.7 601 833.3 601 800 601C766.7 601 733.3 601 700 601C666.7 601 633.3 601 600 601C566.7 601 533.3 601 500 601C466.7 601 433.3 601 400 601C366.7 601 333.3 601 300 601C266.7 601 233.3 601 200 601C166.7 601 133.3 601 100 601C66.7 601 33.3 601 16.7 601L0 601Z" fill="#0066FF" stroke-linecap="round" stroke-linejoin="miter"></path></svg>